<svg width="94" height="64" viewBox="0 0 94 64" fill="none" xmlns="http://www.w3.org/2000/svg" role="img" aria-label="LifeSync mark — transparent (terracotta paths on no bg)"><path d="M6.50809 7.64864C7.4508 7.13334 8.44609 6.69388 9.44188 6.30104C12.7932 4.99053 16.3146 4.22131 19.7492 4.15822C35.5273 3.19311 45.7172 16.2296 53.4598 28.6829C53.9868 29.5528 54.4986 30.4236 55.0269 31.3375C58.7894 28.5698 62.552 25.8022 66.3145 23.0345C65.5312 22.1683 64.766 21.3494 63.9838 20.5316C53.0326 8.97626 36.4285 -3.9429 19.351 1.13706C15.6086 2.03454 12.1766 3.6444 9.117 5.68176C8.20954 6.29139 7.31904 6.94089 6.50809 7.64864Z" fill="#B85C38"></path>
  
  <path d="M31.023 29.6993C27.7216 33.0025 24.4203 36.3057 21.1189 39.6089C22.9367 41.2564 24.7867 42.9137 26.6861 44.5523C37.4789 53.9151 51.2265 63.5969 67.4231 63.7664L67.9878 63.765C76.2825 63.1275 85.2262 58.3344 89.2796 50.7596C93.4677 43.3553 94.142 35.1779 93.7693 27.649C92.6262 13.2484 80.7195 2.6828 67.7062 0.979946C65.4792 1.08862 63.2561 1.27702 61.0622 1.72739C58.6417 2.20327 56.3654 3.14213 54.1618 4.14794C56.4576 3.35554 58.7853 2.65196 61.1703 2.41841C63.338 2.18662 65.5153 2.21188 67.7042 2.31497C79.2341 4.80735 89.3372 16.5306 88.7838 27.6564C88.7337 41.9114 80.7878 55.4626 67.4138 54.5529L67.9785 54.5515C55.4989 53.2079 45.1366 44.6731 35.8524 34.9024C34.2356 33.2099 32.6332 31.4695 31.023 29.6993Z" fill="#B85C38"></path>
  
  <path d="M73.2232 44.156L69.6838 19.651L51.3692 33.3725L73.2232 44.156Z" fill="#B85C38"></path>
  
  <path d="M14.3748 18.2846L17.9142 42.7895L36.2288 29.0681L14.3748 18.2846Z" fill="#B85C38"></path>
  
  <path d="M5.5 11.6494C5.40566 11.3014 5.23072 10.9676 4.95991 10.7215C4.6894 10.4754 4.34978 10.3371 4 10.3371C3.65022 10.3371 3.3106 10.4754 3.04009 10.7215C2.76928 10.9676 2.59434 11.3014 2.5 11.6494C2.5 11.6494 2.5 11.6494 2.5 11.6494C2.16667 12.8928 1.86667 14.1362 1.6 15.3795C0.533333 20.3529 0 25.3264 0 30.2998C0 39.4194 0.19925 48.539 0.59775 57.6587L0.45585 60.906L4 61.0609C8.76536 60.8527 13.5307 60.59 18.2961 60.273C21.8181 60.0387 25.3401 59.7746 28.8621 59.4809C30.1055 59.3772 31.3488 59.2698 32.5922 59.1587C32.9726 59.1244 33.3375 58.9619 33.6065 58.6839C33.8755 58.4062 34.0267 58.0391 34.0267 57.6587C34.0267 57.2782 33.8755 56.9112 33.6065 56.6334C33.3375 56.3555 32.9726 56.1929 32.5922 56.1587C31.3488 56.0476 30.1055 55.9401 28.8621 55.8364C25.3401 55.5427 21.8181 55.2786 18.2961 55.0443C13.5307 54.7273 8.76536 54.4647 4 54.2564L7.40225 57.6587C7.80075 48.539 8 39.4194 8 30.2998C8 25.3264 7.46667 20.3529 6.4 15.3795C6.13333 14.1362 5.83333 12.8928 5.5 11.6494Z" fill="#B85C38"></path>
</svg>